# xmcd
#
# Track frame offsets:
#	150
#	21920
#	48955
#	76255
#	97795
#	124507
#	152517
#	183495
#	204445
#
# Disc length: 3530 seconds
#
# Revision: 2
# Processed by: cddbd v1.5.1PL0 Copyright (c) Steve Scherf et al.
# Submitted via: audiograbber 1.82.02
#
DISCID=600dc809
DTITLE=Chris Wilson - Live at the Continental
DYEAR=1994
DGENRE=Blues
TTITLE0=You Will Surely Love Again
TTITLE1=Wolves
TTITLE2=Face In The Mirror
TTITLE3=The Changeling
TTITLE4=Rose Tattoo
TTITLE5=It Takes A Lot To Laugh, It Takes A Train To Cry
TTITLE6=The Sky Is Crying
TTITLE7=Landlocked
TTITLE8=Hymn
EXTD=
EXTT0=
EXTT1=
EXTT2=
EXTT3=
EXTT4=
EXTT5=
EXTT6=
EXTT7=
EXTT8=
PLAYORDER=
